<mxfile host="app.diagrams.net" modified="2022-10-11T03:55:26.908Z" agent="5.0 (Windows NT 10.0; Win64; x64) AppleWebKit/537.36 (KHTML, like Gecko) Chrome/106.0.0.0 Safari/537.36 Edg/106.0.1370.37" etag="Zlrh14NwVcAw_LHle6Db" version="20.4.0" type="github">
  <diagram id="C5RBs43oDa-KdzZeNtuy" name="Page-1">
    <mxGraphModel dx="1145" dy="662" grid="1" gridSize="10" guides="1" tooltips="1" connect="1" arrows="1" fold="1" page="1" pageScale="1" pageWidth="827" pageHeight="1169" math="0" shadow="0">
      <root>
        <mxCell id="WIyWlLk6GJQsqaUBKTNV-0" />
        <mxCell id="WIyWlLk6GJQsqaUBKTNV-1" parent="WIyWlLk6GJQsqaUBKTNV-0" />
        <mxCell id="1y4cWWdqRUNmFmRpnOmK-2" value="" style="edgeStyle=orthogonalEdgeStyle;rounded=0;orthogonalLoop=1;jettySize=auto;html=1;" edge="1" parent="WIyWlLk6GJQsqaUBKTNV-1" source="1y4cWWdqRUNmFmRpnOmK-0" target="1y4cWWdqRUNmFmRpnOmK-1">
          <mxGeometry relative="1" as="geometry" />
        </mxCell>
        <mxCell id="1y4cWWdqRUNmFmRpnOmK-0" value="START" style="rounded=1;whiteSpace=wrap;html=1;" vertex="1" parent="WIyWlLk6GJQsqaUBKTNV-1">
          <mxGeometry x="340" y="70" width="120" height="60" as="geometry" />
        </mxCell>
        <mxCell id="1y4cWWdqRUNmFmRpnOmK-16" value="" style="edgeStyle=orthogonalEdgeStyle;rounded=0;orthogonalLoop=1;jettySize=auto;html=1;" edge="1" parent="WIyWlLk6GJQsqaUBKTNV-1" source="1y4cWWdqRUNmFmRpnOmK-1" target="1y4cWWdqRUNmFmRpnOmK-15">
          <mxGeometry relative="1" as="geometry" />
        </mxCell>
        <mxCell id="1y4cWWdqRUNmFmRpnOmK-1" value="Get user input of the base and set it to a variable named &quot;base&quot;" style="shape=parallelogram;perimeter=parallelogramPerimeter;whiteSpace=wrap;html=1;fixedSize=1;" vertex="1" parent="WIyWlLk6GJQsqaUBKTNV-1">
          <mxGeometry x="253.75" y="160" width="292.5" height="60" as="geometry" />
        </mxCell>
        <mxCell id="1y4cWWdqRUNmFmRpnOmK-14" value="" style="edgeStyle=orthogonalEdgeStyle;rounded=0;orthogonalLoop=1;jettySize=auto;html=1;" edge="1" parent="WIyWlLk6GJQsqaUBKTNV-1" source="1y4cWWdqRUNmFmRpnOmK-3" target="1y4cWWdqRUNmFmRpnOmK-5">
          <mxGeometry relative="1" as="geometry" />
        </mxCell>
        <mxCell id="1y4cWWdqRUNmFmRpnOmK-23" value="" style="edgeStyle=orthogonalEdgeStyle;rounded=0;orthogonalLoop=1;jettySize=auto;html=1;" edge="1" parent="WIyWlLk6GJQsqaUBKTNV-1" source="1y4cWWdqRUNmFmRpnOmK-3" target="1y4cWWdqRUNmFmRpnOmK-22">
          <mxGeometry relative="1" as="geometry" />
        </mxCell>
        <mxCell id="1y4cWWdqRUNmFmRpnOmK-3" value="Has loop been iterated &quot;exponent&quot; times&amp;nbsp;" style="rhombus;whiteSpace=wrap;html=1;" vertex="1" parent="WIyWlLk6GJQsqaUBKTNV-1">
          <mxGeometry x="269.75" y="430" width="260.5" height="90" as="geometry" />
        </mxCell>
        <mxCell id="1y4cWWdqRUNmFmRpnOmK-20" value="" style="edgeStyle=orthogonalEdgeStyle;rounded=0;orthogonalLoop=1;jettySize=auto;html=1;" edge="1" parent="WIyWlLk6GJQsqaUBKTNV-1" source="1y4cWWdqRUNmFmRpnOmK-5">
          <mxGeometry relative="1" as="geometry">
            <mxPoint x="400" y="410" as="targetPoint" />
            <Array as="points">
              <mxPoint x="649" y="410" />
            </Array>
          </mxGeometry>
        </mxCell>
        <mxCell id="1y4cWWdqRUNmFmRpnOmK-5" value="result *= base" style="whiteSpace=wrap;html=1;" vertex="1" parent="WIyWlLk6GJQsqaUBKTNV-1">
          <mxGeometry x="588.5" y="445" width="121" height="60" as="geometry" />
        </mxCell>
        <mxCell id="1y4cWWdqRUNmFmRpnOmK-12" value="" style="edgeStyle=orthogonalEdgeStyle;rounded=0;orthogonalLoop=1;jettySize=auto;html=1;" edge="1" parent="WIyWlLk6GJQsqaUBKTNV-1" source="1y4cWWdqRUNmFmRpnOmK-8" target="1y4cWWdqRUNmFmRpnOmK-3">
          <mxGeometry relative="1" as="geometry" />
        </mxCell>
        <mxCell id="1y4cWWdqRUNmFmRpnOmK-8" value="Initialise a new integer variable &quot;result&quot; and set it to 1" style="whiteSpace=wrap;html=1;" vertex="1" parent="WIyWlLk6GJQsqaUBKTNV-1">
          <mxGeometry x="300" y="340" width="200" height="60" as="geometry" />
        </mxCell>
        <mxCell id="1y4cWWdqRUNmFmRpnOmK-13" value="False" style="text;html=1;strokeColor=none;fillColor=none;align=center;verticalAlign=middle;whiteSpace=wrap;rounded=0;" vertex="1" parent="WIyWlLk6GJQsqaUBKTNV-1">
          <mxGeometry x="527.5" y="445" width="61" height="30" as="geometry" />
        </mxCell>
        <mxCell id="1y4cWWdqRUNmFmRpnOmK-17" value="" style="edgeStyle=orthogonalEdgeStyle;rounded=0;orthogonalLoop=1;jettySize=auto;html=1;" edge="1" parent="WIyWlLk6GJQsqaUBKTNV-1" source="1y4cWWdqRUNmFmRpnOmK-15" target="1y4cWWdqRUNmFmRpnOmK-8">
          <mxGeometry relative="1" as="geometry" />
        </mxCell>
        <mxCell id="1y4cWWdqRUNmFmRpnOmK-15" value="Get user input of the exponent and set it to a variable named &quot;exponent&quot;" style="shape=parallelogram;perimeter=parallelogramPerimeter;whiteSpace=wrap;html=1;fixedSize=1;" vertex="1" parent="WIyWlLk6GJQsqaUBKTNV-1">
          <mxGeometry x="267.5" y="250" width="265" height="60" as="geometry" />
        </mxCell>
        <mxCell id="1y4cWWdqRUNmFmRpnOmK-27" value="" style="edgeStyle=orthogonalEdgeStyle;rounded=0;orthogonalLoop=1;jettySize=auto;html=1;" edge="1" parent="WIyWlLk6GJQsqaUBKTNV-1" source="1y4cWWdqRUNmFmRpnOmK-22" target="1y4cWWdqRUNmFmRpnOmK-26">
          <mxGeometry relative="1" as="geometry" />
        </mxCell>
        <mxCell id="1y4cWWdqRUNmFmRpnOmK-22" value="Display &quot;result&quot; in console" style="shape=parallelogram;perimeter=parallelogramPerimeter;whiteSpace=wrap;html=1;fixedSize=1;" vertex="1" parent="WIyWlLk6GJQsqaUBKTNV-1">
          <mxGeometry x="285" y="554.5" width="230" height="60" as="geometry" />
        </mxCell>
        <mxCell id="1y4cWWdqRUNmFmRpnOmK-26" value="END" style="rounded=1;whiteSpace=wrap;html=1;" vertex="1" parent="WIyWlLk6GJQsqaUBKTNV-1">
          <mxGeometry x="340" y="650" width="120" height="60" as="geometry" />
        </mxCell>
        <mxCell id="1y4cWWdqRUNmFmRpnOmK-28" value="True" style="text;html=1;strokeColor=none;fillColor=none;align=center;verticalAlign=middle;whiteSpace=wrap;rounded=0;" vertex="1" parent="WIyWlLk6GJQsqaUBKTNV-1">
          <mxGeometry x="390" y="520" width="61" height="30" as="geometry" />
        </mxCell>
      </root>
    </mxGraphModel>
  </diagram>
</mxfile>
